<svg viewBox="25 24 72 72" xmlns="http://www.w3.org/2000/svg">
	<defs>
		<linearGradient id="a" x1="25" y1="34.787" x2="89.077" y2="92.495" gradientUnits="userSpaceOnUse">
			<stop stop-color="#4C54D2"/><stop offset=".563" stop-color="#BF14A2"/>
			<stop offset="1" stop-color="#F73A1C"/>
		</linearGradient>
	</defs>

	<path fill-rule="evenodd" clip-rule="evenodd" d="M94.292 84.624a2.962 2.962 0 0 1-3.032-.145l-13.122-8.75v3.34a5.91 5.91 0 0 1-5.904 5.904h-41.33A5.91 5.91 0 0 1 25 79.07V40.69a5.911 5.911 0 0 1 5.904-5.904h41.33a5.911 5.911 0 0 1 5.904 5.904v3.343l13.122-8.75a2.95 2.95 0 0 1 4.591 2.455v44.283c0 1.09-.6 2.087-1.559 2.602Zm-4.345-41.366-13.122 8.746c-.077.05-.166.057-.245.101-.177.098-.36.169-.561.228a2.861 2.861 0 0 1-.561.113c-.095.009-.177.056-.272.056-.1 0-.186-.047-.286-.06a2.662 2.662 0 0 1-.57-.115 2.804 2.804 0 0 1-.522-.213 2.87 2.87 0 0 1-.88-.731c-.06-.074-.145-.116-.198-.196-.05-.077-.059-.168-.1-.248a2.7 2.7 0 0 1-.225-.548 2.895 2.895 0 0 1-.118-.578c-.009-.091-.053-.171-.053-.263v-8.859h-41.33v38.491h41.33v-8.968c0-.092.044-.172.053-.264a2.78 2.78 0 0 1 .118-.577c.06-.196.127-.373.225-.55.041-.08.05-.17.1-.247.053-.08.139-.124.2-.198a2.923 2.923 0 0 1 .886-.734 2.857 2.857 0 0 1 1.099-.326c.094-.012.174-.056.271-.056.092 0 .168.044.257.053.2.018.39.056.585.115.194.06.374.13.549.228.08.042.17.048.248.101l13.122 8.746V43.258Z" fill="url(#a)"/>
</svg>